<mxfile host="app.diagrams.net" agent="Mozilla/5.0 (Windows NT 10.0; Win64; x64) AppleWebKit/537.36 (KHTML, like Gecko) Chrome/129.0.0.0 Safari/537.36" version="24.7.17" pages="2">
  <diagram name="Página-1" id="D1UG52gK4ZFhQqOSn1Ke">
    <mxGraphModel dx="2694" dy="780" grid="1" gridSize="10" guides="1" tooltips="1" connect="1" arrows="1" fold="1" page="1" pageScale="1" pageWidth="827" pageHeight="1169" math="0" shadow="0">
      <root>
        <mxCell id="0" />
        <mxCell id="1" parent="0" />
        <mxCell id="8Ww00pwWWYWBI8ZVEA0D-1" value="USUARIO" style="whiteSpace=wrap;html=1;align=center;" parent="1" vertex="1">
          <mxGeometry x="800" y="200" width="100" height="40" as="geometry" />
        </mxCell>
        <mxCell id="8Ww00pwWWYWBI8ZVEA0D-4" value="PARQUEADERO" style="whiteSpace=wrap;html=1;align=center;" parent="1" vertex="1">
          <mxGeometry x="-270" y="200" width="100" height="40" as="geometry" />
        </mxCell>
        <mxCell id="8Ww00pwWWYWBI8ZVEA0D-7" value="capacidad" style="ellipse;whiteSpace=wrap;html=1;align=center;" parent="1" vertex="1">
          <mxGeometry x="-470" y="175" width="100" height="40" as="geometry" />
        </mxCell>
        <mxCell id="8Ww00pwWWYWBI8ZVEA0D-8" value="id_parquea" style="ellipse;whiteSpace=wrap;html=1;align=center;fontStyle=4;" parent="1" vertex="1">
          <mxGeometry x="-470" y="15" width="100" height="40" as="geometry" />
        </mxCell>
        <mxCell id="8Ww00pwWWYWBI8ZVEA0D-9" value="direccion" style="ellipse;whiteSpace=wrap;html=1;align=center;" parent="1" vertex="1">
          <mxGeometry x="-470" y="125" width="100" height="40" as="geometry" />
        </mxCell>
        <mxCell id="8Ww00pwWWYWBI8ZVEA0D-10" value="nombre" style="ellipse;whiteSpace=wrap;html=1;align=center;" parent="1" vertex="1">
          <mxGeometry x="-470" y="75" width="100" height="40" as="geometry" />
        </mxCell>
        <mxCell id="8Ww00pwWWYWBI8ZVEA0D-12" value="tarifa_hora" style="ellipse;whiteSpace=wrap;html=1;align=center;" parent="1" vertex="1">
          <mxGeometry x="-470" y="225" width="100" height="40" as="geometry" />
        </mxCell>
        <mxCell id="8Ww00pwWWYWBI8ZVEA0D-13" value="apertura" style="ellipse;whiteSpace=wrap;html=1;align=center;" parent="1" vertex="1">
          <mxGeometry x="-470" y="335" width="100" height="40" as="geometry" />
        </mxCell>
        <mxCell id="8Ww00pwWWYWBI8ZVEA0D-14" value="cierre" style="ellipse;whiteSpace=wrap;html=1;align=center;" parent="1" vertex="1">
          <mxGeometry x="-470" y="275" width="100" height="40" as="geometry" />
        </mxCell>
        <mxCell id="8Ww00pwWWYWBI8ZVEA0D-15" value="documentación" style="ellipse;whiteSpace=wrap;html=1;align=center;" parent="1" vertex="1">
          <mxGeometry x="-470" y="385" width="100" height="40" as="geometry" />
        </mxCell>
        <mxCell id="8Ww00pwWWYWBI8ZVEA0D-16" value="" style="endArrow=none;html=1;rounded=0;exitX=1;exitY=0.5;exitDx=0;exitDy=0;entryX=0;entryY=0;entryDx=0;entryDy=0;" parent="1" source="8Ww00pwWWYWBI8ZVEA0D-8" target="8Ww00pwWWYWBI8ZVEA0D-4" edge="1">
          <mxGeometry relative="1" as="geometry">
            <mxPoint x="-290" y="115" as="sourcePoint" />
            <mxPoint x="-320" y="285" as="targetPoint" />
            <Array as="points">
              <mxPoint x="-290" y="35" />
              <mxPoint x="-290" y="205" />
            </Array>
          </mxGeometry>
        </mxCell>
        <mxCell id="8Ww00pwWWYWBI8ZVEA0D-17" value="" style="endArrow=none;html=1;rounded=0;exitX=1;exitY=0.5;exitDx=0;exitDy=0;entryX=0;entryY=0.25;entryDx=0;entryDy=0;" parent="1" source="8Ww00pwWWYWBI8ZVEA0D-10" target="8Ww00pwWWYWBI8ZVEA0D-4" edge="1">
          <mxGeometry relative="1" as="geometry">
            <mxPoint x="-370" y="195" as="sourcePoint" />
            <mxPoint x="-270" y="375" as="targetPoint" />
            <Array as="points">
              <mxPoint x="-310" y="95" />
              <mxPoint x="-310" y="215" />
            </Array>
          </mxGeometry>
        </mxCell>
        <mxCell id="8Ww00pwWWYWBI8ZVEA0D-18" value="" style="endArrow=none;html=1;rounded=0;exitX=1;exitY=0.5;exitDx=0;exitDy=0;entryX=0;entryY=0.5;entryDx=0;entryDy=0;" parent="1" source="8Ww00pwWWYWBI8ZVEA0D-9" target="8Ww00pwWWYWBI8ZVEA0D-4" edge="1">
          <mxGeometry relative="1" as="geometry">
            <mxPoint x="-360" y="255" as="sourcePoint" />
            <mxPoint x="-260" y="375" as="targetPoint" />
            <Array as="points">
              <mxPoint x="-320" y="145" />
              <mxPoint x="-320" y="225" />
            </Array>
          </mxGeometry>
        </mxCell>
        <mxCell id="8Ww00pwWWYWBI8ZVEA0D-19" value="" style="endArrow=none;html=1;rounded=0;exitX=1;exitY=0.5;exitDx=0;exitDy=0;entryX=0;entryY=0.75;entryDx=0;entryDy=0;" parent="1" source="8Ww00pwWWYWBI8ZVEA0D-7" target="8Ww00pwWWYWBI8ZVEA0D-4" edge="1">
          <mxGeometry relative="1" as="geometry">
            <mxPoint x="-360" y="205" as="sourcePoint" />
            <mxPoint x="-260" y="285" as="targetPoint" />
            <Array as="points">
              <mxPoint x="-330" y="195" />
              <mxPoint x="-330" y="235" />
            </Array>
          </mxGeometry>
        </mxCell>
        <mxCell id="8Ww00pwWWYWBI8ZVEA0D-20" value="" style="endArrow=none;html=1;rounded=0;exitX=1;exitY=0.5;exitDx=0;exitDy=0;entryX=0;entryY=1;entryDx=0;entryDy=0;" parent="1" source="8Ww00pwWWYWBI8ZVEA0D-15" target="8Ww00pwWWYWBI8ZVEA0D-4" edge="1">
          <mxGeometry relative="1" as="geometry">
            <mxPoint x="-320" y="404.5" as="sourcePoint" />
            <mxPoint x="-230" y="275" as="targetPoint" />
            <Array as="points">
              <mxPoint x="-290" y="405" />
              <mxPoint x="-290" y="245" />
            </Array>
          </mxGeometry>
        </mxCell>
        <mxCell id="8Ww00pwWWYWBI8ZVEA0D-21" value="" style="endArrow=none;html=1;rounded=0;exitX=1;exitY=0.5;exitDx=0;exitDy=0;entryX=0;entryY=0.75;entryDx=0;entryDy=0;" parent="1" source="8Ww00pwWWYWBI8ZVEA0D-13" target="8Ww00pwWWYWBI8ZVEA0D-4" edge="1">
          <mxGeometry relative="1" as="geometry">
            <mxPoint x="-360" y="415" as="sourcePoint" />
            <mxPoint x="-260" y="255" as="targetPoint" />
            <Array as="points">
              <mxPoint x="-320" y="355" />
              <mxPoint x="-320" y="245" />
            </Array>
          </mxGeometry>
        </mxCell>
        <mxCell id="8Ww00pwWWYWBI8ZVEA0D-22" value="" style="endArrow=none;html=1;rounded=0;exitX=1;exitY=0.5;exitDx=0;exitDy=0;entryX=0;entryY=0.75;entryDx=0;entryDy=0;" parent="1" source="8Ww00pwWWYWBI8ZVEA0D-14" target="8Ww00pwWWYWBI8ZVEA0D-4" edge="1">
          <mxGeometry relative="1" as="geometry">
            <mxPoint x="-360" y="365" as="sourcePoint" />
            <mxPoint x="-260" y="245" as="targetPoint" />
            <Array as="points">
              <mxPoint x="-330" y="295" />
              <mxPoint x="-330" y="245" />
            </Array>
          </mxGeometry>
        </mxCell>
        <mxCell id="8Ww00pwWWYWBI8ZVEA0D-23" value="" style="endArrow=none;html=1;rounded=0;exitX=1;exitY=0.5;exitDx=0;exitDy=0;entryX=0;entryY=0.5;entryDx=0;entryDy=0;" parent="1" source="8Ww00pwWWYWBI8ZVEA0D-12" target="8Ww00pwWWYWBI8ZVEA0D-4" edge="1">
          <mxGeometry relative="1" as="geometry">
            <mxPoint x="30" y="115" as="sourcePoint" />
            <mxPoint x="190" y="115" as="targetPoint" />
          </mxGeometry>
        </mxCell>
        <mxCell id="8Ww00pwWWYWBI8ZVEA0D-25" value="REGISTROS" style="whiteSpace=wrap;html=1;align=center;" parent="1" vertex="1">
          <mxGeometry x="320" y="680" width="100" height="40" as="geometry" />
        </mxCell>
        <mxCell id="8Ww00pwWWYWBI8ZVEA0D-28" value="método_pago" style="ellipse;whiteSpace=wrap;html=1;align=center;" parent="1" vertex="1">
          <mxGeometry x="240" y="340" width="100" height="40" as="geometry" />
        </mxCell>
        <mxCell id="8Ww00pwWWYWBI8ZVEA0D-30" value="inicio_reserva" style="ellipse;whiteSpace=wrap;html=1;align=center;" parent="1" vertex="1">
          <mxGeometry x="330" y="370" width="100" height="40" as="geometry" />
        </mxCell>
        <mxCell id="8Ww00pwWWYWBI8ZVEA0D-31" value="final_reserva" style="ellipse;whiteSpace=wrap;html=1;align=center;" parent="1" vertex="1">
          <mxGeometry x="440" y="340" width="100" height="40" as="geometry" />
        </mxCell>
        <mxCell id="8Ww00pwWWYWBI8ZVEA0D-32" value="fk id usuario" style="ellipse;whiteSpace=wrap;html=1;align=center;fontStyle=4;" parent="1" vertex="1">
          <mxGeometry x="510" y="300" width="100" height="40" as="geometry" />
        </mxCell>
        <mxCell id="8Ww00pwWWYWBI8ZVEA0D-33" value="id reserva" style="ellipse;whiteSpace=wrap;html=1;align=center;fontStyle=4;" parent="1" vertex="1">
          <mxGeometry x="160" y="300" width="100" height="40" as="geometry" />
        </mxCell>
        <mxCell id="8Ww00pwWWYWBI8ZVEA0D-35" value="" style="endArrow=none;html=1;rounded=0;exitX=0.5;exitY=0;exitDx=0;exitDy=0;entryX=0.25;entryY=1;entryDx=0;entryDy=0;" parent="1" source="8Ww00pwWWYWBI8ZVEA0D-28" edge="1">
          <mxGeometry relative="1" as="geometry">
            <mxPoint x="265" y="316" as="sourcePoint" />
            <mxPoint x="355" y="240" as="targetPoint" />
          </mxGeometry>
        </mxCell>
        <mxCell id="8Ww00pwWWYWBI8ZVEA0D-36" value="" style="endArrow=none;html=1;rounded=0;exitX=0.5;exitY=0;exitDx=0;exitDy=0;entryX=0.5;entryY=1;entryDx=0;entryDy=0;" parent="1" source="8Ww00pwWWYWBI8ZVEA0D-30" edge="1">
          <mxGeometry relative="1" as="geometry">
            <mxPoint x="300" y="350" as="sourcePoint" />
            <mxPoint x="380" y="240" as="targetPoint" />
          </mxGeometry>
        </mxCell>
        <mxCell id="8Ww00pwWWYWBI8ZVEA0D-37" value="" style="endArrow=none;html=1;rounded=0;exitX=0;exitY=0;exitDx=0;exitDy=0;entryX=0.75;entryY=1;entryDx=0;entryDy=0;" parent="1" source="8Ww00pwWWYWBI8ZVEA0D-31" edge="1">
          <mxGeometry relative="1" as="geometry">
            <mxPoint x="400" y="380" as="sourcePoint" />
            <mxPoint x="405" y="240" as="targetPoint" />
          </mxGeometry>
        </mxCell>
        <mxCell id="8Ww00pwWWYWBI8ZVEA0D-38" value="" style="endArrow=none;html=1;rounded=0;exitX=0;exitY=0;exitDx=0;exitDy=0;entryX=1;entryY=1;entryDx=0;entryDy=0;" parent="1" source="8Ww00pwWWYWBI8ZVEA0D-32" edge="1">
          <mxGeometry relative="1" as="geometry">
            <mxPoint x="475" y="356" as="sourcePoint" />
            <mxPoint x="430" y="240" as="targetPoint" />
          </mxGeometry>
        </mxCell>
        <mxCell id="8Ww00pwWWYWBI8ZVEA0D-39" value="id usuario" style="ellipse;whiteSpace=wrap;html=1;align=center;fontStyle=4;" parent="1" vertex="1">
          <mxGeometry x="1010" y="110" width="100" height="40" as="geometry" />
        </mxCell>
        <mxCell id="8Ww00pwWWYWBI8ZVEA0D-40" value="nombre" style="ellipse;whiteSpace=wrap;html=1;align=center;" parent="1" vertex="1">
          <mxGeometry x="1010" y="160" width="100" height="40" as="geometry" />
        </mxCell>
        <mxCell id="8Ww00pwWWYWBI8ZVEA0D-41" value="teléfono" style="ellipse;whiteSpace=wrap;html=1;align=center;" parent="1" vertex="1">
          <mxGeometry x="1010" y="210" width="100" height="40" as="geometry" />
        </mxCell>
        <mxCell id="8Ww00pwWWYWBI8ZVEA0D-42" value="tipoTransp&lt;span style=&quot;color: rgba(0, 0, 0, 0); font-family: monospace; font-size: 0px; text-align: start; text-wrap: nowrap;&quot;&gt;%3CmxGraphModel%3E%3Croot%3E%3CmxCell%20id%3D%220%22%2F%3E%3CmxCell%20id%3D%221%22%20parent%3D%220%22%2F%3E%3CmxCell%20id%3D%222%22%20value%3D%22tel%C3%A9fono%22%20style%3D%22ellipse%3BwhiteSpace%3Dwrap%3Bhtml%3D1%3Balign%3Dcenter%3B%22%20vertex%3D%221%22%20parent%3D%221%22%3E%3CmxGeometry%20x%3D%221220%22%20y%3D%22230%22%20width%3D%22100%22%20height%3D%2240%22%20as%3D%22geometry%22%2F%3E%3C%2FmxCell%3E%3C%2Froot%3E%3C%2FmxGraphModel%3E&lt;/span&gt;orte" style="ellipse;whiteSpace=wrap;html=1;align=center;" parent="1" vertex="1">
          <mxGeometry x="1010" y="260" width="100" height="40" as="geometry" />
        </mxCell>
        <mxCell id="8Ww00pwWWYWBI8ZVEA0D-43" value="placa" style="ellipse;whiteSpace=wrap;html=1;align=center;" parent="1" vertex="1">
          <mxGeometry x="1010" y="310" width="100" height="40" as="geometry" />
        </mxCell>
        <mxCell id="8Ww00pwWWYWBI8ZVEA0D-44" value="" style="endArrow=none;html=1;rounded=0;entryX=0;entryY=0.5;entryDx=0;entryDy=0;exitX=1;exitY=0;exitDx=0;exitDy=0;" parent="1" source="8Ww00pwWWYWBI8ZVEA0D-1" target="8Ww00pwWWYWBI8ZVEA0D-39" edge="1">
          <mxGeometry relative="1" as="geometry">
            <mxPoint x="930" y="250" as="sourcePoint" />
            <mxPoint x="970" y="129.5" as="targetPoint" />
            <Array as="points">
              <mxPoint x="930" y="200" />
              <mxPoint x="930" y="130" />
            </Array>
          </mxGeometry>
        </mxCell>
        <mxCell id="8Ww00pwWWYWBI8ZVEA0D-45" value="" style="endArrow=none;html=1;rounded=0;entryX=0;entryY=0.5;entryDx=0;entryDy=0;exitX=1;exitY=0.25;exitDx=0;exitDy=0;" parent="1" source="8Ww00pwWWYWBI8ZVEA0D-1" target="8Ww00pwWWYWBI8ZVEA0D-40" edge="1">
          <mxGeometry relative="1" as="geometry">
            <mxPoint x="910" y="210" as="sourcePoint" />
            <mxPoint x="1020" y="140" as="targetPoint" />
            <Array as="points">
              <mxPoint x="940" y="210" />
              <mxPoint x="940" y="180" />
            </Array>
          </mxGeometry>
        </mxCell>
        <mxCell id="8Ww00pwWWYWBI8ZVEA0D-47" value="" style="endArrow=none;html=1;rounded=0;exitX=1;exitY=0.5;exitDx=0;exitDy=0;entryX=0;entryY=0.5;entryDx=0;entryDy=0;" parent="1" source="8Ww00pwWWYWBI8ZVEA0D-1" target="8Ww00pwWWYWBI8ZVEA0D-41" edge="1">
          <mxGeometry relative="1" as="geometry">
            <mxPoint x="790" y="279.5" as="sourcePoint" />
            <mxPoint x="950" y="279.5" as="targetPoint" />
          </mxGeometry>
        </mxCell>
        <mxCell id="8Ww00pwWWYWBI8ZVEA0D-48" value="" style="endArrow=none;html=1;rounded=0;exitX=1;exitY=0.75;exitDx=0;exitDy=0;entryX=0;entryY=0.5;entryDx=0;entryDy=0;" parent="1" source="8Ww00pwWWYWBI8ZVEA0D-1" target="8Ww00pwWWYWBI8ZVEA0D-42" edge="1">
          <mxGeometry relative="1" as="geometry">
            <mxPoint x="910" y="270" as="sourcePoint" />
            <mxPoint x="960" y="300" as="targetPoint" />
            <Array as="points">
              <mxPoint x="960" y="240" />
              <mxPoint x="960" y="280" />
            </Array>
          </mxGeometry>
        </mxCell>
        <mxCell id="8Ww00pwWWYWBI8ZVEA0D-49" value="" style="endArrow=none;html=1;rounded=0;exitX=1;exitY=1;exitDx=0;exitDy=0;entryX=0;entryY=0.5;entryDx=0;entryDy=0;" parent="1" source="8Ww00pwWWYWBI8ZVEA0D-1" target="8Ww00pwWWYWBI8ZVEA0D-43" edge="1">
          <mxGeometry relative="1" as="geometry">
            <mxPoint x="890" y="359.5" as="sourcePoint" />
            <mxPoint x="1050" y="359.5" as="targetPoint" />
            <Array as="points">
              <mxPoint x="900" y="290" />
              <mxPoint x="930" y="330" />
            </Array>
          </mxGeometry>
        </mxCell>
        <mxCell id="8Ww00pwWWYWBI8ZVEA0D-52" value="fecha_pago" style="ellipse;whiteSpace=wrap;html=1;align=center;" parent="1" vertex="1">
          <mxGeometry x="430" y="790" width="100" height="40" as="geometry" />
        </mxCell>
        <mxCell id="8Ww00pwWWYWBI8ZVEA0D-54" value="fk id pago" style="ellipse;whiteSpace=wrap;html=1;align=center;fontStyle=4;" parent="1" vertex="1">
          <mxGeometry x="280" y="790" width="100" height="40" as="geometry" />
        </mxCell>
        <mxCell id="8Ww00pwWWYWBI8ZVEA0D-55" value="" style="endArrow=none;html=1;rounded=0;exitX=0.5;exitY=0;exitDx=0;exitDy=0;entryX=0.25;entryY=1;entryDx=0;entryDy=0;" parent="1" source="8Ww00pwWWYWBI8ZVEA0D-54" target="8Ww00pwWWYWBI8ZVEA0D-25" edge="1">
          <mxGeometry relative="1" as="geometry">
            <mxPoint x="620" y="850" as="sourcePoint" />
            <mxPoint x="780" y="850" as="targetPoint" />
          </mxGeometry>
        </mxCell>
        <mxCell id="8Ww00pwWWYWBI8ZVEA0D-56" value="" style="endArrow=none;html=1;rounded=0;exitX=0.5;exitY=0;exitDx=0;exitDy=0;entryX=0.75;entryY=1;entryDx=0;entryDy=0;" parent="1" source="8Ww00pwWWYWBI8ZVEA0D-52" target="8Ww00pwWWYWBI8ZVEA0D-25" edge="1">
          <mxGeometry relative="1" as="geometry">
            <mxPoint x="395" y="820" as="sourcePoint" />
            <mxPoint x="450" y="760" as="targetPoint" />
          </mxGeometry>
        </mxCell>
        <mxCell id="8Ww00pwWWYWBI8ZVEA0D-60" value="id pago" style="ellipse;whiteSpace=wrap;html=1;align=center;fontStyle=4;" parent="1" vertex="1">
          <mxGeometry x="-500" y="480" width="100" height="40" as="geometry" />
        </mxCell>
        <mxCell id="8Ww00pwWWYWBI8ZVEA0D-61" value="fk id parquea" style="ellipse;whiteSpace=wrap;html=1;align=center;fontStyle=4;" parent="1" vertex="1">
          <mxGeometry x="-500" y="540" width="100" height="40" as="geometry" />
        </mxCell>
        <mxCell id="8Ww00pwWWYWBI8ZVEA0D-62" value="monto" style="ellipse;whiteSpace=wrap;html=1;align=center;" parent="1" vertex="1">
          <mxGeometry x="-500" y="610" width="100" height="40" as="geometry" />
        </mxCell>
        <mxCell id="8Ww00pwWWYWBI8ZVEA0D-63" value="fecha_pago" style="ellipse;whiteSpace=wrap;html=1;align=center;" parent="1" vertex="1">
          <mxGeometry x="-500" y="750" width="100" height="40" as="geometry" />
        </mxCell>
        <mxCell id="8Ww00pwWWYWBI8ZVEA0D-64" value="metodoPago" style="ellipse;whiteSpace=wrap;html=1;align=center;" parent="1" vertex="1">
          <mxGeometry x="-500" y="810" width="100" height="40" as="geometry" />
        </mxCell>
        <mxCell id="8Ww00pwWWYWBI8ZVEA0D-65" value="&lt;div style=&quot;text-align: left;&quot;&gt;&lt;span style=&quot;background-color: initial;&quot;&gt;estado_pago&lt;/span&gt;&lt;/div&gt;" style="ellipse;whiteSpace=wrap;html=1;align=center;" parent="1" vertex="1">
          <mxGeometry x="-500" y="680" width="100" height="40" as="geometry" />
        </mxCell>
        <mxCell id="8Ww00pwWWYWBI8ZVEA0D-66" value="comprobante" style="ellipse;whiteSpace=wrap;html=1;align=center;" parent="1" vertex="1">
          <mxGeometry x="-500" y="870" width="100" height="40" as="geometry" />
        </mxCell>
        <mxCell id="8Ww00pwWWYWBI8ZVEA0D-75" value="" style="endArrow=none;html=1;rounded=0;exitX=1;exitY=0.5;exitDx=0;exitDy=0;entryX=0;entryY=0;entryDx=0;entryDy=0;" parent="1" source="8Ww00pwWWYWBI8ZVEA0D-60" edge="1">
          <mxGeometry relative="1" as="geometry">
            <mxPoint x="-390" y="510" as="sourcePoint" />
            <mxPoint x="-270" y="680" as="targetPoint" />
            <Array as="points">
              <mxPoint x="-310" y="510" />
              <mxPoint x="-310" y="680" />
            </Array>
          </mxGeometry>
        </mxCell>
        <mxCell id="8Ww00pwWWYWBI8ZVEA0D-76" value="" style="endArrow=none;html=1;rounded=0;exitX=1;exitY=0.5;exitDx=0;exitDy=0;entryX=0;entryY=0.25;entryDx=0;entryDy=0;" parent="1" source="8Ww00pwWWYWBI8ZVEA0D-61" edge="1">
          <mxGeometry relative="1" as="geometry">
            <mxPoint x="-390" y="570" as="sourcePoint" />
            <mxPoint x="-270" y="690" as="targetPoint" />
            <Array as="points">
              <mxPoint x="-330" y="570" />
              <mxPoint x="-330" y="690" />
            </Array>
          </mxGeometry>
        </mxCell>
        <mxCell id="8Ww00pwWWYWBI8ZVEA0D-77" value="" style="endArrow=none;html=1;rounded=0;exitX=1;exitY=0.5;exitDx=0;exitDy=0;entryX=0;entryY=0.5;entryDx=0;entryDy=0;" parent="1" source="8Ww00pwWWYWBI8ZVEA0D-62" edge="1">
          <mxGeometry relative="1" as="geometry">
            <mxPoint x="-390" y="620" as="sourcePoint" />
            <mxPoint x="-270" y="700" as="targetPoint" />
            <Array as="points">
              <mxPoint x="-350" y="630" />
              <mxPoint x="-340" y="700" />
            </Array>
          </mxGeometry>
        </mxCell>
        <mxCell id="8Ww00pwWWYWBI8ZVEA0D-79" value="" style="endArrow=none;html=1;rounded=0;exitX=1;exitY=0.5;exitDx=0;exitDy=0;entryX=0;entryY=1;entryDx=0;entryDy=0;" parent="1" source="8Ww00pwWWYWBI8ZVEA0D-66" edge="1">
          <mxGeometry relative="1" as="geometry">
            <mxPoint x="-390" y="880" as="sourcePoint" />
            <mxPoint x="-270" y="720" as="targetPoint" />
            <Array as="points">
              <mxPoint x="-310" y="890" />
              <mxPoint x="-310" y="720" />
            </Array>
          </mxGeometry>
        </mxCell>
        <mxCell id="8Ww00pwWWYWBI8ZVEA0D-80" value="" style="endArrow=none;html=1;rounded=0;exitX=1;exitY=0.5;exitDx=0;exitDy=0;entryX=0;entryY=0.5;entryDx=0;entryDy=0;" parent="1" source="8Ww00pwWWYWBI8ZVEA0D-64" edge="1">
          <mxGeometry relative="1" as="geometry">
            <mxPoint x="-390" y="830" as="sourcePoint" />
            <mxPoint x="-270" y="700" as="targetPoint" />
            <Array as="points">
              <mxPoint x="-340" y="830" />
              <mxPoint x="-340" y="720" />
            </Array>
          </mxGeometry>
        </mxCell>
        <mxCell id="8Ww00pwWWYWBI8ZVEA0D-81" value="" style="endArrow=none;html=1;rounded=0;exitX=1;exitY=0.5;exitDx=0;exitDy=0;entryX=0;entryY=0.5;entryDx=0;entryDy=0;" parent="1" source="8Ww00pwWWYWBI8ZVEA0D-63" edge="1">
          <mxGeometry relative="1" as="geometry">
            <mxPoint x="-390" y="770" as="sourcePoint" />
            <mxPoint x="-270" y="700" as="targetPoint" />
            <Array as="points">
              <mxPoint x="-350" y="770" />
              <mxPoint x="-350" y="720" />
            </Array>
          </mxGeometry>
        </mxCell>
        <mxCell id="8Ww00pwWWYWBI8ZVEA0D-82" value="" style="endArrow=none;html=1;rounded=0;exitX=1;exitY=0.5;exitDx=0;exitDy=0;entryX=0;entryY=0.5;entryDx=0;entryDy=0;" parent="1" source="8Ww00pwWWYWBI8ZVEA0D-65" edge="1">
          <mxGeometry relative="1" as="geometry">
            <mxPoint x="-390" y="720" as="sourcePoint" />
            <mxPoint x="-270" y="700" as="targetPoint" />
          </mxGeometry>
        </mxCell>
        <mxCell id="8Ww00pwWWYWBI8ZVEA0D-86" value="" style="endArrow=none;html=1;rounded=0;exitX=1;exitY=0.5;exitDx=0;exitDy=0;entryX=0;entryY=0.5;entryDx=0;entryDy=0;" parent="1" target="lPwPZ8M9gi9Hf_ZqBTpw-19" edge="1">
          <mxGeometry relative="1" as="geometry">
            <mxPoint x="430" y="220" as="sourcePoint" />
            <mxPoint x="520" y="220" as="targetPoint" />
          </mxGeometry>
        </mxCell>
        <mxCell id="8Ww00pwWWYWBI8ZVEA0D-87" value="" style="endArrow=none;html=1;rounded=0;exitX=1;exitY=0.5;exitDx=0;exitDy=0;entryX=0;entryY=0.5;entryDx=0;entryDy=0;" parent="1" source="lPwPZ8M9gi9Hf_ZqBTpw-19" target="8Ww00pwWWYWBI8ZVEA0D-1" edge="1">
          <mxGeometry relative="1" as="geometry">
            <mxPoint x="685" y="220" as="sourcePoint" />
            <mxPoint x="995" y="269.40999999999997" as="targetPoint" />
          </mxGeometry>
        </mxCell>
        <mxCell id="8Ww00pwWWYWBI8ZVEA0D-91" value="1" style="text;strokeColor=none;align=center;fillColor=none;html=1;verticalAlign=middle;whiteSpace=wrap;rounded=0;" parent="1" vertex="1">
          <mxGeometry x="760" y="195" width="60" height="30" as="geometry" />
        </mxCell>
        <mxCell id="8Ww00pwWWYWBI8ZVEA0D-92" value="M" style="text;strokeColor=none;align=center;fillColor=none;html=1;verticalAlign=middle;whiteSpace=wrap;rounded=0;" parent="1" vertex="1">
          <mxGeometry x="414" y="195" width="60" height="30" as="geometry" />
        </mxCell>
        <mxCell id="8Ww00pwWWYWBI8ZVEA0D-94" value="1" style="text;strokeColor=none;align=center;fillColor=none;html=1;verticalAlign=middle;whiteSpace=wrap;rounded=0;" parent="1" vertex="1">
          <mxGeometry x="414" y="215" width="60" height="30" as="geometry" />
        </mxCell>
        <mxCell id="8Ww00pwWWYWBI8ZVEA0D-95" value="1" style="text;strokeColor=none;align=center;fillColor=none;html=1;verticalAlign=middle;whiteSpace=wrap;rounded=0;" parent="1" vertex="1">
          <mxGeometry x="760" y="220" width="60" height="30" as="geometry" />
        </mxCell>
        <mxCell id="8Ww00pwWWYWBI8ZVEA0D-96" value="arreglo" style="shape=associativeEntity;whiteSpace=wrap;html=1;align=center;" parent="1" vertex="1">
          <mxGeometry y="190" width="140" height="60" as="geometry" />
        </mxCell>
        <mxCell id="8Ww00pwWWYWBI8ZVEA0D-97" value="" style="endArrow=none;html=1;rounded=0;exitX=1;exitY=0.5;exitDx=0;exitDy=0;entryX=0;entryY=0.5;entryDx=0;entryDy=0;" parent="1" source="8Ww00pwWWYWBI8ZVEA0D-4" target="8Ww00pwWWYWBI8ZVEA0D-96" edge="1">
          <mxGeometry relative="1" as="geometry">
            <mxPoint x="-270" y="280" as="sourcePoint" />
            <mxPoint x="-110" y="280" as="targetPoint" />
          </mxGeometry>
        </mxCell>
        <mxCell id="8Ww00pwWWYWBI8ZVEA0D-98" value="" style="endArrow=none;html=1;rounded=0;exitX=1;exitY=0.5;exitDx=0;exitDy=0;entryX=0;entryY=0.5;entryDx=0;entryDy=0;" parent="1" source="8Ww00pwWWYWBI8ZVEA0D-96" edge="1">
          <mxGeometry relative="1" as="geometry">
            <mxPoint x="170" y="235" as="sourcePoint" />
            <mxPoint x="330" y="220" as="targetPoint" />
          </mxGeometry>
        </mxCell>
        <mxCell id="8Ww00pwWWYWBI8ZVEA0D-99" value="ubicación" style="ellipse;whiteSpace=wrap;html=1;align=center;" parent="1" vertex="1">
          <mxGeometry x="1000" y="360" width="100" height="40" as="geometry" />
        </mxCell>
        <mxCell id="8Ww00pwWWYWBI8ZVEA0D-100" value="" style="endArrow=none;html=1;rounded=0;exitX=0.75;exitY=1;exitDx=0;exitDy=0;entryX=0;entryY=0;entryDx=0;entryDy=0;" parent="1" source="8Ww00pwWWYWBI8ZVEA0D-1" target="8Ww00pwWWYWBI8ZVEA0D-99" edge="1">
          <mxGeometry relative="1" as="geometry">
            <mxPoint x="790" y="354.40999999999997" as="sourcePoint" />
            <mxPoint x="950" y="354.40999999999997" as="targetPoint" />
            <Array as="points">
              <mxPoint x="891" y="360" />
            </Array>
          </mxGeometry>
        </mxCell>
        <mxCell id="8Ww00pwWWYWBI8ZVEA0D-101" value="" style="endArrow=none;html=1;rounded=0;exitX=1;exitY=0.5;exitDx=0;exitDy=0;entryX=0;entryY=0.5;entryDx=0;entryDy=0;" parent="1" edge="1">
          <mxGeometry relative="1" as="geometry">
            <mxPoint x="-170" y="700" as="sourcePoint" />
            <mxPoint x="20" y="700" as="targetPoint" />
          </mxGeometry>
        </mxCell>
        <mxCell id="8Ww00pwWWYWBI8ZVEA0D-103" value="" style="endArrow=none;html=1;rounded=0;exitX=1;exitY=0.5;exitDx=0;exitDy=0;entryX=0;entryY=0.5;entryDx=0;entryDy=0;" parent="1" target="8Ww00pwWWYWBI8ZVEA0D-25" edge="1">
          <mxGeometry relative="1" as="geometry">
            <mxPoint x="140" y="700" as="sourcePoint" />
            <mxPoint x="390" y="690" as="targetPoint" />
          </mxGeometry>
        </mxCell>
        <mxCell id="8Ww00pwWWYWBI8ZVEA0D-105" value="" style="endArrow=none;html=1;rounded=0;exitX=0.75;exitY=1;exitDx=0;exitDy=0;entryX=0.5;entryY=1;entryDx=0;entryDy=0;" parent="1" source="lPwPZ8M9gi9Hf_ZqBTpw-2" edge="1">
          <mxGeometry relative="1" as="geometry">
            <mxPoint x="260" y="440" as="sourcePoint" />
            <mxPoint x="-220" y="450" as="targetPoint" />
          </mxGeometry>
        </mxCell>
        <mxCell id="8Ww00pwWWYWBI8ZVEA0D-106" value="" style="endArrow=none;html=1;rounded=0;exitX=0.5;exitY=0;exitDx=0;exitDy=0;entryX=0.5;entryY=1;entryDx=0;entryDy=0;" parent="1" target="8Ww00pwWWYWBI8ZVEA0D-4" edge="1">
          <mxGeometry relative="1" as="geometry">
            <mxPoint x="-220" y="470" as="sourcePoint" />
            <mxPoint x="-220" y="540" as="targetPoint" />
          </mxGeometry>
        </mxCell>
        <mxCell id="8Ww00pwWWYWBI8ZVEA0D-108" value="M" style="text;strokeColor=none;align=center;fillColor=none;html=1;verticalAlign=middle;whiteSpace=wrap;rounded=0;" parent="1" vertex="1">
          <mxGeometry x="-180" y="195" width="60" height="30" as="geometry" />
        </mxCell>
        <mxCell id="8Ww00pwWWYWBI8ZVEA0D-110" value="1" style="text;strokeColor=none;align=center;fillColor=none;html=1;verticalAlign=middle;whiteSpace=wrap;rounded=0;" parent="1" vertex="1">
          <mxGeometry x="-180" y="215" width="60" height="30" as="geometry" />
        </mxCell>
        <mxCell id="8Ww00pwWWYWBI8ZVEA0D-111" value="N" style="text;strokeColor=none;align=center;fillColor=none;html=1;verticalAlign=middle;whiteSpace=wrap;rounded=0;" parent="1" vertex="1">
          <mxGeometry x="290" y="195" width="60" height="30" as="geometry" />
        </mxCell>
        <mxCell id="lPwPZ8M9gi9Hf_ZqBTpw-1" value="1" style="text;strokeColor=none;align=center;fillColor=none;html=1;verticalAlign=middle;whiteSpace=wrap;rounded=0;" parent="1" vertex="1">
          <mxGeometry x="-230" y="240" width="60" height="30" as="geometry" />
        </mxCell>
        <mxCell id="lPwPZ8M9gi9Hf_ZqBTpw-4" value="" style="endArrow=none;html=1;rounded=0;exitX=0.5;exitY=0;exitDx=0;exitDy=0;entryX=0.5;entryY=1;entryDx=0;entryDy=0;" parent="1" target="lPwPZ8M9gi9Hf_ZqBTpw-2" edge="1">
          <mxGeometry relative="1" as="geometry">
            <mxPoint x="-220" y="680" as="sourcePoint" />
            <mxPoint x="-220" y="450" as="targetPoint" />
          </mxGeometry>
        </mxCell>
        <mxCell id="lPwPZ8M9gi9Hf_ZqBTpw-2" value="M" style="text;strokeColor=none;align=center;fillColor=none;html=1;verticalAlign=middle;whiteSpace=wrap;rounded=0;" parent="1" vertex="1">
          <mxGeometry x="-270" y="650" width="60" height="30" as="geometry" />
        </mxCell>
        <mxCell id="lPwPZ8M9gi9Hf_ZqBTpw-5" value="1" style="text;strokeColor=none;align=center;fillColor=none;html=1;verticalAlign=middle;whiteSpace=wrap;rounded=0;" parent="1" vertex="1">
          <mxGeometry x="-240" y="650" width="60" height="30" as="geometry" />
        </mxCell>
        <mxCell id="lPwPZ8M9gi9Hf_ZqBTpw-6" value="1" style="text;strokeColor=none;align=center;fillColor=none;html=1;verticalAlign=middle;whiteSpace=wrap;rounded=0;" parent="1" vertex="1">
          <mxGeometry x="-260" y="240" width="60" height="30" as="geometry" />
        </mxCell>
        <mxCell id="lPwPZ8M9gi9Hf_ZqBTpw-7" value="1" style="text;strokeColor=none;align=center;fillColor=none;html=1;verticalAlign=middle;whiteSpace=wrap;rounded=0;" parent="1" vertex="1">
          <mxGeometry x="-180" y="670" width="60" height="30" as="geometry" />
        </mxCell>
        <mxCell id="lPwPZ8M9gi9Hf_ZqBTpw-8" value="M" style="text;strokeColor=none;align=center;fillColor=none;html=1;verticalAlign=middle;whiteSpace=wrap;rounded=0;" parent="1" vertex="1">
          <mxGeometry x="270" y="700" width="60" height="30" as="geometry" />
        </mxCell>
        <mxCell id="lPwPZ8M9gi9Hf_ZqBTpw-9" value="1" style="text;strokeColor=none;align=center;fillColor=none;html=1;verticalAlign=middle;whiteSpace=wrap;rounded=0;" parent="1" vertex="1">
          <mxGeometry x="270" y="670" width="60" height="30" as="geometry" />
        </mxCell>
        <mxCell id="lPwPZ8M9gi9Hf_ZqBTpw-10" value="1" style="text;strokeColor=none;align=center;fillColor=none;html=1;verticalAlign=middle;whiteSpace=wrap;rounded=0;" parent="1" vertex="1">
          <mxGeometry x="-180" y="700" width="60" height="30" as="geometry" />
        </mxCell>
        <mxCell id="lPwPZ8M9gi9Hf_ZqBTpw-11" value="id parquea ,id reserva" style="ellipse;whiteSpace=wrap;html=1;align=center;fontStyle=4;" parent="1" vertex="1">
          <mxGeometry x="20" y="290" width="100" height="40" as="geometry" />
        </mxCell>
        <mxCell id="lPwPZ8M9gi9Hf_ZqBTpw-12" value="" style="endArrow=none;html=1;rounded=0;exitX=0.5;exitY=1;exitDx=0;exitDy=0;entryX=0.5;entryY=0;entryDx=0;entryDy=0;" parent="1" source="8Ww00pwWWYWBI8ZVEA0D-96" target="lPwPZ8M9gi9Hf_ZqBTpw-11" edge="1">
          <mxGeometry relative="1" as="geometry">
            <mxPoint x="280" y="500" as="sourcePoint" />
            <mxPoint x="440" y="500" as="targetPoint" />
          </mxGeometry>
        </mxCell>
        <mxCell id="lPwPZ8M9gi9Hf_ZqBTpw-13" value="N,M" style="text;strokeColor=none;align=center;fillColor=none;html=1;verticalAlign=middle;whiteSpace=wrap;rounded=0;" parent="1" vertex="1">
          <mxGeometry x="40" y="150" width="60" height="30" as="geometry" />
        </mxCell>
        <mxCell id="lPwPZ8M9gi9Hf_ZqBTpw-15" value="" style="endArrow=none;html=1;rounded=0;exitX=1;exitY=0;exitDx=0;exitDy=0;entryX=0;entryY=1;entryDx=0;entryDy=0;" parent="1" source="8Ww00pwWWYWBI8ZVEA0D-33" edge="1">
          <mxGeometry relative="1" as="geometry">
            <mxPoint x="280" y="500" as="sourcePoint" />
            <mxPoint x="330" y="240" as="targetPoint" />
          </mxGeometry>
        </mxCell>
        <mxCell id="lPwPZ8M9gi9Hf_ZqBTpw-16" value="PAGO" style="whiteSpace=wrap;html=1;align=center;" parent="1" vertex="1">
          <mxGeometry x="-270" y="680" width="100" height="40" as="geometry" />
        </mxCell>
        <mxCell id="lPwPZ8M9gi9Hf_ZqBTpw-18" value="RESERVAS" style="whiteSpace=wrap;html=1;align=center;" parent="1" vertex="1">
          <mxGeometry x="330" y="200" width="100" height="40" as="geometry" />
        </mxCell>
        <mxCell id="lPwPZ8M9gi9Hf_ZqBTpw-19" value="Relationship" style="shape=rhombus;perimeter=rhombusPerimeter;whiteSpace=wrap;html=1;align=center;" parent="1" vertex="1">
          <mxGeometry x="560" y="190" width="120" height="60" as="geometry" />
        </mxCell>
        <mxCell id="lPwPZ8M9gi9Hf_ZqBTpw-20" value="Relationship" style="shape=rhombus;perimeter=rhombusPerimeter;whiteSpace=wrap;html=1;align=center;" parent="1" vertex="1">
          <mxGeometry x="-280" y="470" width="120" height="60" as="geometry" />
        </mxCell>
        <mxCell id="lPwPZ8M9gi9Hf_ZqBTpw-21" value="Relationship" style="shape=rhombus;perimeter=rhombusPerimeter;whiteSpace=wrap;html=1;align=center;" parent="1" vertex="1">
          <mxGeometry x="20" y="670" width="120" height="60" as="geometry" />
        </mxCell>
        <mxCell id="lPwPZ8M9gi9Hf_ZqBTpw-25" value="1" style="text;strokeColor=none;align=center;fillColor=none;html=1;verticalAlign=middle;whiteSpace=wrap;rounded=0;" parent="1" vertex="1">
          <mxGeometry x="290" y="215" width="60" height="30" as="geometry" />
        </mxCell>
      </root>
    </mxGraphModel>
  </diagram>
  <diagram id="h5-uFPQdZSnlZpm9Bs30" name="Página-2">
    <mxGraphModel dx="2501" dy="814" grid="1" gridSize="10" guides="1" tooltips="1" connect="1" arrows="1" fold="1" page="1" pageScale="1" pageWidth="827" pageHeight="1169" math="0" shadow="0">
      <root>
        <mxCell id="0" />
        <mxCell id="1" parent="0" />
        <mxCell id="Wda21bL40QOKUWqbM3mz-1" value="USUARIO" style="shape=table;startSize=30;container=1;collapsible=1;childLayout=tableLayout;fixedRows=1;rowLines=0;fontStyle=1;align=center;resizeLast=1;html=1;" parent="1" vertex="1">
          <mxGeometry x="730" y="130" width="180" height="150" as="geometry" />
        </mxCell>
        <mxCell id="Wda21bL40QOKUWqbM3mz-2" value="" style="shape=tableRow;horizontal=0;startSize=0;swimlaneHead=0;swimlaneBody=0;fillColor=none;collapsible=0;dropTarget=0;points=[[0,0.5],[1,0.5]];portConstraint=eastwest;top=0;left=0;right=0;bottom=1;" parent="Wda21bL40QOKUWqbM3mz-1" vertex="1">
          <mxGeometry y="30" width="180" height="30" as="geometry" />
        </mxCell>
        <mxCell id="Wda21bL40QOKUWqbM3mz-3" value="PK" style="shape=partialRectangle;connectable=0;fillColor=none;top=0;left=0;bottom=0;right=0;fontStyle=1;overflow=hidden;whiteSpace=wrap;html=1;" parent="Wda21bL40QOKUWqbM3mz-2" vertex="1">
          <mxGeometry width="30" height="30" as="geometry">
            <mxRectangle width="30" height="30" as="alternateBounds" />
          </mxGeometry>
        </mxCell>
        <mxCell id="Wda21bL40QOKUWqbM3mz-4" value="UniqueID" style="shape=partialRectangle;connectable=0;fillColor=none;top=0;left=0;bottom=0;right=0;align=left;spacingLeft=6;fontStyle=5;overflow=hidden;whiteSpace=wrap;html=1;" parent="Wda21bL40QOKUWqbM3mz-2" vertex="1">
          <mxGeometry x="30" width="150" height="30" as="geometry">
            <mxRectangle width="150" height="30" as="alternateBounds" />
          </mxGeometry>
        </mxCell>
        <mxCell id="Wda21bL40QOKUWqbM3mz-5" value="" style="shape=tableRow;horizontal=0;startSize=0;swimlaneHead=0;swimlaneBody=0;fillColor=none;collapsible=0;dropTarget=0;points=[[0,0.5],[1,0.5]];portConstraint=eastwest;top=0;left=0;right=0;bottom=0;" parent="Wda21bL40QOKUWqbM3mz-1" vertex="1">
          <mxGeometry y="60" width="180" height="30" as="geometry" />
        </mxCell>
        <mxCell id="Wda21bL40QOKUWqbM3mz-6" value="" style="shape=partialRectangle;connectable=0;fillColor=none;top=0;left=0;bottom=0;right=0;editable=1;overflow=hidden;whiteSpace=wrap;html=1;" parent="Wda21bL40QOKUWqbM3mz-5" vertex="1">
          <mxGeometry width="30" height="30" as="geometry">
            <mxRectangle width="30" height="30" as="alternateBounds" />
          </mxGeometry>
        </mxCell>
        <mxCell id="Wda21bL40QOKUWqbM3mz-7" value="Row 1" style="shape=partialRectangle;connectable=0;fillColor=none;top=0;left=0;bottom=0;right=0;align=left;spacingLeft=6;overflow=hidden;whiteSpace=wrap;html=1;" parent="Wda21bL40QOKUWqbM3mz-5" vertex="1">
          <mxGeometry x="30" width="150" height="30" as="geometry">
            <mxRectangle width="150" height="30" as="alternateBounds" />
          </mxGeometry>
        </mxCell>
        <mxCell id="Wda21bL40QOKUWqbM3mz-8" value="" style="shape=tableRow;horizontal=0;startSize=0;swimlaneHead=0;swimlaneBody=0;fillColor=none;collapsible=0;dropTarget=0;points=[[0,0.5],[1,0.5]];portConstraint=eastwest;top=0;left=0;right=0;bottom=0;" parent="Wda21bL40QOKUWqbM3mz-1" vertex="1">
          <mxGeometry y="90" width="180" height="30" as="geometry" />
        </mxCell>
        <mxCell id="Wda21bL40QOKUWqbM3mz-9" value="" style="shape=partialRectangle;connectable=0;fillColor=none;top=0;left=0;bottom=0;right=0;editable=1;overflow=hidden;whiteSpace=wrap;html=1;" parent="Wda21bL40QOKUWqbM3mz-8" vertex="1">
          <mxGeometry width="30" height="30" as="geometry">
            <mxRectangle width="30" height="30" as="alternateBounds" />
          </mxGeometry>
        </mxCell>
        <mxCell id="Wda21bL40QOKUWqbM3mz-10" value="Row 2" style="shape=partialRectangle;connectable=0;fillColor=none;top=0;left=0;bottom=0;right=0;align=left;spacingLeft=6;overflow=hidden;whiteSpace=wrap;html=1;" parent="Wda21bL40QOKUWqbM3mz-8" vertex="1">
          <mxGeometry x="30" width="150" height="30" as="geometry">
            <mxRectangle width="150" height="30" as="alternateBounds" />
          </mxGeometry>
        </mxCell>
        <mxCell id="Wda21bL40QOKUWqbM3mz-11" value="" style="shape=tableRow;horizontal=0;startSize=0;swimlaneHead=0;swimlaneBody=0;fillColor=none;collapsible=0;dropTarget=0;points=[[0,0.5],[1,0.5]];portConstraint=eastwest;top=0;left=0;right=0;bottom=0;" parent="Wda21bL40QOKUWqbM3mz-1" vertex="1">
          <mxGeometry y="120" width="180" height="30" as="geometry" />
        </mxCell>
        <mxCell id="Wda21bL40QOKUWqbM3mz-12" value="" style="shape=partialRectangle;connectable=0;fillColor=none;top=0;left=0;bottom=0;right=0;editable=1;overflow=hidden;whiteSpace=wrap;html=1;" parent="Wda21bL40QOKUWqbM3mz-11" vertex="1">
          <mxGeometry width="30" height="30" as="geometry">
            <mxRectangle width="30" height="30" as="alternateBounds" />
          </mxGeometry>
        </mxCell>
        <mxCell id="Wda21bL40QOKUWqbM3mz-13" value="Row 3" style="shape=partialRectangle;connectable=0;fillColor=none;top=0;left=0;bottom=0;right=0;align=left;spacingLeft=6;overflow=hidden;whiteSpace=wrap;html=1;" parent="Wda21bL40QOKUWqbM3mz-11" vertex="1">
          <mxGeometry x="30" width="150" height="30" as="geometry">
            <mxRectangle width="150" height="30" as="alternateBounds" />
          </mxGeometry>
        </mxCell>
        <mxCell id="Wda21bL40QOKUWqbM3mz-14" value="RESERVA" style="shape=table;startSize=30;container=1;collapsible=1;childLayout=tableLayout;fixedRows=1;rowLines=0;fontStyle=1;align=center;resizeLast=1;html=1;" parent="1" vertex="1">
          <mxGeometry x="370" y="120" width="180" height="150" as="geometry" />
        </mxCell>
        <mxCell id="Wda21bL40QOKUWqbM3mz-15" value="" style="shape=tableRow;horizontal=0;startSize=0;swimlaneHead=0;swimlaneBody=0;fillColor=none;collapsible=0;dropTarget=0;points=[[0,0.5],[1,0.5]];portConstraint=eastwest;top=0;left=0;right=0;bottom=1;" parent="Wda21bL40QOKUWqbM3mz-14" vertex="1">
          <mxGeometry y="30" width="180" height="30" as="geometry" />
        </mxCell>
        <mxCell id="Wda21bL40QOKUWqbM3mz-16" value="PK" style="shape=partialRectangle;connectable=0;fillColor=none;top=0;left=0;bottom=0;right=0;fontStyle=1;overflow=hidden;whiteSpace=wrap;html=1;" parent="Wda21bL40QOKUWqbM3mz-15" vertex="1">
          <mxGeometry width="30" height="30" as="geometry">
            <mxRectangle width="30" height="30" as="alternateBounds" />
          </mxGeometry>
        </mxCell>
        <mxCell id="Wda21bL40QOKUWqbM3mz-17" value="UniqueID" style="shape=partialRectangle;connectable=0;fillColor=none;top=0;left=0;bottom=0;right=0;align=left;spacingLeft=6;fontStyle=5;overflow=hidden;whiteSpace=wrap;html=1;" parent="Wda21bL40QOKUWqbM3mz-15" vertex="1">
          <mxGeometry x="30" width="150" height="30" as="geometry">
            <mxRectangle width="150" height="30" as="alternateBounds" />
          </mxGeometry>
        </mxCell>
        <mxCell id="Wda21bL40QOKUWqbM3mz-18" value="" style="shape=tableRow;horizontal=0;startSize=0;swimlaneHead=0;swimlaneBody=0;fillColor=none;collapsible=0;dropTarget=0;points=[[0,0.5],[1,0.5]];portConstraint=eastwest;top=0;left=0;right=0;bottom=0;" parent="Wda21bL40QOKUWqbM3mz-14" vertex="1">
          <mxGeometry y="60" width="180" height="30" as="geometry" />
        </mxCell>
        <mxCell id="Wda21bL40QOKUWqbM3mz-19" value="" style="shape=partialRectangle;connectable=0;fillColor=none;top=0;left=0;bottom=0;right=0;editable=1;overflow=hidden;whiteSpace=wrap;html=1;" parent="Wda21bL40QOKUWqbM3mz-18" vertex="1">
          <mxGeometry width="30" height="30" as="geometry">
            <mxRectangle width="30" height="30" as="alternateBounds" />
          </mxGeometry>
        </mxCell>
        <mxCell id="Wda21bL40QOKUWqbM3mz-20" value="Row 1" style="shape=partialRectangle;connectable=0;fillColor=none;top=0;left=0;bottom=0;right=0;align=left;spacingLeft=6;overflow=hidden;whiteSpace=wrap;html=1;" parent="Wda21bL40QOKUWqbM3mz-18" vertex="1">
          <mxGeometry x="30" width="150" height="30" as="geometry">
            <mxRectangle width="150" height="30" as="alternateBounds" />
          </mxGeometry>
        </mxCell>
        <mxCell id="Wda21bL40QOKUWqbM3mz-21" value="" style="shape=tableRow;horizontal=0;startSize=0;swimlaneHead=0;swimlaneBody=0;fillColor=none;collapsible=0;dropTarget=0;points=[[0,0.5],[1,0.5]];portConstraint=eastwest;top=0;left=0;right=0;bottom=0;" parent="Wda21bL40QOKUWqbM3mz-14" vertex="1">
          <mxGeometry y="90" width="180" height="30" as="geometry" />
        </mxCell>
        <mxCell id="Wda21bL40QOKUWqbM3mz-22" value="" style="shape=partialRectangle;connectable=0;fillColor=none;top=0;left=0;bottom=0;right=0;editable=1;overflow=hidden;whiteSpace=wrap;html=1;" parent="Wda21bL40QOKUWqbM3mz-21" vertex="1">
          <mxGeometry width="30" height="30" as="geometry">
            <mxRectangle width="30" height="30" as="alternateBounds" />
          </mxGeometry>
        </mxCell>
        <mxCell id="Wda21bL40QOKUWqbM3mz-23" value="Row 2" style="shape=partialRectangle;connectable=0;fillColor=none;top=0;left=0;bottom=0;right=0;align=left;spacingLeft=6;overflow=hidden;whiteSpace=wrap;html=1;" parent="Wda21bL40QOKUWqbM3mz-21" vertex="1">
          <mxGeometry x="30" width="150" height="30" as="geometry">
            <mxRectangle width="150" height="30" as="alternateBounds" />
          </mxGeometry>
        </mxCell>
        <mxCell id="Wda21bL40QOKUWqbM3mz-24" value="" style="shape=tableRow;horizontal=0;startSize=0;swimlaneHead=0;swimlaneBody=0;fillColor=none;collapsible=0;dropTarget=0;points=[[0,0.5],[1,0.5]];portConstraint=eastwest;top=0;left=0;right=0;bottom=0;" parent="Wda21bL40QOKUWqbM3mz-14" vertex="1">
          <mxGeometry y="120" width="180" height="30" as="geometry" />
        </mxCell>
        <mxCell id="Wda21bL40QOKUWqbM3mz-25" value="" style="shape=partialRectangle;connectable=0;fillColor=none;top=0;left=0;bottom=0;right=0;editable=1;overflow=hidden;whiteSpace=wrap;html=1;" parent="Wda21bL40QOKUWqbM3mz-24" vertex="1">
          <mxGeometry width="30" height="30" as="geometry">
            <mxRectangle width="30" height="30" as="alternateBounds" />
          </mxGeometry>
        </mxCell>
        <mxCell id="Wda21bL40QOKUWqbM3mz-26" value="Row 3" style="shape=partialRectangle;connectable=0;fillColor=none;top=0;left=0;bottom=0;right=0;align=left;spacingLeft=6;overflow=hidden;whiteSpace=wrap;html=1;" parent="Wda21bL40QOKUWqbM3mz-24" vertex="1">
          <mxGeometry x="30" width="150" height="30" as="geometry">
            <mxRectangle width="150" height="30" as="alternateBounds" />
          </mxGeometry>
        </mxCell>
        <mxCell id="Wda21bL40QOKUWqbM3mz-40" value="REGISTRO" style="shape=table;startSize=30;container=1;collapsible=1;childLayout=tableLayout;fixedRows=1;rowLines=0;fontStyle=1;align=center;resizeLast=1;html=1;" parent="1" vertex="1">
          <mxGeometry x="610" y="520" width="180" height="150" as="geometry" />
        </mxCell>
        <mxCell id="Wda21bL40QOKUWqbM3mz-41" value="" style="shape=tableRow;horizontal=0;startSize=0;swimlaneHead=0;swimlaneBody=0;fillColor=none;collapsible=0;dropTarget=0;points=[[0,0.5],[1,0.5]];portConstraint=eastwest;top=0;left=0;right=0;bottom=1;" parent="Wda21bL40QOKUWqbM3mz-40" vertex="1">
          <mxGeometry y="30" width="180" height="30" as="geometry" />
        </mxCell>
        <mxCell id="Wda21bL40QOKUWqbM3mz-42" value="PK" style="shape=partialRectangle;connectable=0;fillColor=none;top=0;left=0;bottom=0;right=0;fontStyle=1;overflow=hidden;whiteSpace=wrap;html=1;" parent="Wda21bL40QOKUWqbM3mz-41" vertex="1">
          <mxGeometry width="30" height="30" as="geometry">
            <mxRectangle width="30" height="30" as="alternateBounds" />
          </mxGeometry>
        </mxCell>
        <mxCell id="Wda21bL40QOKUWqbM3mz-43" value="UniqueID" style="shape=partialRectangle;connectable=0;fillColor=none;top=0;left=0;bottom=0;right=0;align=left;spacingLeft=6;fontStyle=5;overflow=hidden;whiteSpace=wrap;html=1;" parent="Wda21bL40QOKUWqbM3mz-41" vertex="1">
          <mxGeometry x="30" width="150" height="30" as="geometry">
            <mxRectangle width="150" height="30" as="alternateBounds" />
          </mxGeometry>
        </mxCell>
        <mxCell id="Wda21bL40QOKUWqbM3mz-44" value="" style="shape=tableRow;horizontal=0;startSize=0;swimlaneHead=0;swimlaneBody=0;fillColor=none;collapsible=0;dropTarget=0;points=[[0,0.5],[1,0.5]];portConstraint=eastwest;top=0;left=0;right=0;bottom=0;" parent="Wda21bL40QOKUWqbM3mz-40" vertex="1">
          <mxGeometry y="60" width="180" height="30" as="geometry" />
        </mxCell>
        <mxCell id="Wda21bL40QOKUWqbM3mz-45" value="" style="shape=partialRectangle;connectable=0;fillColor=none;top=0;left=0;bottom=0;right=0;editable=1;overflow=hidden;whiteSpace=wrap;html=1;" parent="Wda21bL40QOKUWqbM3mz-44" vertex="1">
          <mxGeometry width="30" height="30" as="geometry">
            <mxRectangle width="30" height="30" as="alternateBounds" />
          </mxGeometry>
        </mxCell>
        <mxCell id="Wda21bL40QOKUWqbM3mz-46" value="Row 1" style="shape=partialRectangle;connectable=0;fillColor=none;top=0;left=0;bottom=0;right=0;align=left;spacingLeft=6;overflow=hidden;whiteSpace=wrap;html=1;" parent="Wda21bL40QOKUWqbM3mz-44" vertex="1">
          <mxGeometry x="30" width="150" height="30" as="geometry">
            <mxRectangle width="150" height="30" as="alternateBounds" />
          </mxGeometry>
        </mxCell>
        <mxCell id="Wda21bL40QOKUWqbM3mz-47" value="" style="shape=tableRow;horizontal=0;startSize=0;swimlaneHead=0;swimlaneBody=0;fillColor=none;collapsible=0;dropTarget=0;points=[[0,0.5],[1,0.5]];portConstraint=eastwest;top=0;left=0;right=0;bottom=0;" parent="Wda21bL40QOKUWqbM3mz-40" vertex="1">
          <mxGeometry y="90" width="180" height="30" as="geometry" />
        </mxCell>
        <mxCell id="Wda21bL40QOKUWqbM3mz-48" value="" style="shape=partialRectangle;connectable=0;fillColor=none;top=0;left=0;bottom=0;right=0;editable=1;overflow=hidden;whiteSpace=wrap;html=1;" parent="Wda21bL40QOKUWqbM3mz-47" vertex="1">
          <mxGeometry width="30" height="30" as="geometry">
            <mxRectangle width="30" height="30" as="alternateBounds" />
          </mxGeometry>
        </mxCell>
        <mxCell id="Wda21bL40QOKUWqbM3mz-49" value="Row 2" style="shape=partialRectangle;connectable=0;fillColor=none;top=0;left=0;bottom=0;right=0;align=left;spacingLeft=6;overflow=hidden;whiteSpace=wrap;html=1;" parent="Wda21bL40QOKUWqbM3mz-47" vertex="1">
          <mxGeometry x="30" width="150" height="30" as="geometry">
            <mxRectangle width="150" height="30" as="alternateBounds" />
          </mxGeometry>
        </mxCell>
        <mxCell id="Wda21bL40QOKUWqbM3mz-50" value="" style="shape=tableRow;horizontal=0;startSize=0;swimlaneHead=0;swimlaneBody=0;fillColor=none;collapsible=0;dropTarget=0;points=[[0,0.5],[1,0.5]];portConstraint=eastwest;top=0;left=0;right=0;bottom=0;" parent="Wda21bL40QOKUWqbM3mz-40" vertex="1">
          <mxGeometry y="120" width="180" height="30" as="geometry" />
        </mxCell>
        <mxCell id="Wda21bL40QOKUWqbM3mz-51" value="" style="shape=partialRectangle;connectable=0;fillColor=none;top=0;left=0;bottom=0;right=0;editable=1;overflow=hidden;whiteSpace=wrap;html=1;" parent="Wda21bL40QOKUWqbM3mz-50" vertex="1">
          <mxGeometry width="30" height="30" as="geometry">
            <mxRectangle width="30" height="30" as="alternateBounds" />
          </mxGeometry>
        </mxCell>
        <mxCell id="Wda21bL40QOKUWqbM3mz-52" value="Row 3" style="shape=partialRectangle;connectable=0;fillColor=none;top=0;left=0;bottom=0;right=0;align=left;spacingLeft=6;overflow=hidden;whiteSpace=wrap;html=1;" parent="Wda21bL40QOKUWqbM3mz-50" vertex="1">
          <mxGeometry x="30" width="150" height="30" as="geometry">
            <mxRectangle width="150" height="30" as="alternateBounds" />
          </mxGeometry>
        </mxCell>
        <mxCell id="Wda21bL40QOKUWqbM3mz-53" value="PAGO" style="shape=table;startSize=30;container=1;collapsible=1;childLayout=tableLayout;fixedRows=1;rowLines=0;fontStyle=1;align=center;resizeLast=1;html=1;" parent="1" vertex="1">
          <mxGeometry x="-10" y="520" width="180" height="150" as="geometry" />
        </mxCell>
        <mxCell id="Wda21bL40QOKUWqbM3mz-54" value="" style="shape=tableRow;horizontal=0;startSize=0;swimlaneHead=0;swimlaneBody=0;fillColor=none;collapsible=0;dropTarget=0;points=[[0,0.5],[1,0.5]];portConstraint=eastwest;top=0;left=0;right=0;bottom=1;" parent="Wda21bL40QOKUWqbM3mz-53" vertex="1">
          <mxGeometry y="30" width="180" height="30" as="geometry" />
        </mxCell>
        <mxCell id="Wda21bL40QOKUWqbM3mz-55" value="PK" style="shape=partialRectangle;connectable=0;fillColor=none;top=0;left=0;bottom=0;right=0;fontStyle=1;overflow=hidden;whiteSpace=wrap;html=1;" parent="Wda21bL40QOKUWqbM3mz-54" vertex="1">
          <mxGeometry width="30" height="30" as="geometry">
            <mxRectangle width="30" height="30" as="alternateBounds" />
          </mxGeometry>
        </mxCell>
        <mxCell id="Wda21bL40QOKUWqbM3mz-56" value="UniqueID" style="shape=partialRectangle;connectable=0;fillColor=none;top=0;left=0;bottom=0;right=0;align=left;spacingLeft=6;fontStyle=5;overflow=hidden;whiteSpace=wrap;html=1;" parent="Wda21bL40QOKUWqbM3mz-54" vertex="1">
          <mxGeometry x="30" width="150" height="30" as="geometry">
            <mxRectangle width="150" height="30" as="alternateBounds" />
          </mxGeometry>
        </mxCell>
        <mxCell id="Wda21bL40QOKUWqbM3mz-57" value="" style="shape=tableRow;horizontal=0;startSize=0;swimlaneHead=0;swimlaneBody=0;fillColor=none;collapsible=0;dropTarget=0;points=[[0,0.5],[1,0.5]];portConstraint=eastwest;top=0;left=0;right=0;bottom=0;" parent="Wda21bL40QOKUWqbM3mz-53" vertex="1">
          <mxGeometry y="60" width="180" height="30" as="geometry" />
        </mxCell>
        <mxCell id="Wda21bL40QOKUWqbM3mz-58" value="" style="shape=partialRectangle;connectable=0;fillColor=none;top=0;left=0;bottom=0;right=0;editable=1;overflow=hidden;whiteSpace=wrap;html=1;" parent="Wda21bL40QOKUWqbM3mz-57" vertex="1">
          <mxGeometry width="30" height="30" as="geometry">
            <mxRectangle width="30" height="30" as="alternateBounds" />
          </mxGeometry>
        </mxCell>
        <mxCell id="Wda21bL40QOKUWqbM3mz-59" value="Row 1" style="shape=partialRectangle;connectable=0;fillColor=none;top=0;left=0;bottom=0;right=0;align=left;spacingLeft=6;overflow=hidden;whiteSpace=wrap;html=1;" parent="Wda21bL40QOKUWqbM3mz-57" vertex="1">
          <mxGeometry x="30" width="150" height="30" as="geometry">
            <mxRectangle width="150" height="30" as="alternateBounds" />
          </mxGeometry>
        </mxCell>
        <mxCell id="Wda21bL40QOKUWqbM3mz-60" value="" style="shape=tableRow;horizontal=0;startSize=0;swimlaneHead=0;swimlaneBody=0;fillColor=none;collapsible=0;dropTarget=0;points=[[0,0.5],[1,0.5]];portConstraint=eastwest;top=0;left=0;right=0;bottom=0;" parent="Wda21bL40QOKUWqbM3mz-53" vertex="1">
          <mxGeometry y="90" width="180" height="30" as="geometry" />
        </mxCell>
        <mxCell id="Wda21bL40QOKUWqbM3mz-61" value="" style="shape=partialRectangle;connectable=0;fillColor=none;top=0;left=0;bottom=0;right=0;editable=1;overflow=hidden;whiteSpace=wrap;html=1;" parent="Wda21bL40QOKUWqbM3mz-60" vertex="1">
          <mxGeometry width="30" height="30" as="geometry">
            <mxRectangle width="30" height="30" as="alternateBounds" />
          </mxGeometry>
        </mxCell>
        <mxCell id="Wda21bL40QOKUWqbM3mz-62" value="Row 2" style="shape=partialRectangle;connectable=0;fillColor=none;top=0;left=0;bottom=0;right=0;align=left;spacingLeft=6;overflow=hidden;whiteSpace=wrap;html=1;" parent="Wda21bL40QOKUWqbM3mz-60" vertex="1">
          <mxGeometry x="30" width="150" height="30" as="geometry">
            <mxRectangle width="150" height="30" as="alternateBounds" />
          </mxGeometry>
        </mxCell>
        <mxCell id="Wda21bL40QOKUWqbM3mz-63" value="" style="shape=tableRow;horizontal=0;startSize=0;swimlaneHead=0;swimlaneBody=0;fillColor=none;collapsible=0;dropTarget=0;points=[[0,0.5],[1,0.5]];portConstraint=eastwest;top=0;left=0;right=0;bottom=0;" parent="Wda21bL40QOKUWqbM3mz-53" vertex="1">
          <mxGeometry y="120" width="180" height="30" as="geometry" />
        </mxCell>
        <mxCell id="Wda21bL40QOKUWqbM3mz-64" value="" style="shape=partialRectangle;connectable=0;fillColor=none;top=0;left=0;bottom=0;right=0;editable=1;overflow=hidden;whiteSpace=wrap;html=1;" parent="Wda21bL40QOKUWqbM3mz-63" vertex="1">
          <mxGeometry width="30" height="30" as="geometry">
            <mxRectangle width="30" height="30" as="alternateBounds" />
          </mxGeometry>
        </mxCell>
        <mxCell id="Wda21bL40QOKUWqbM3mz-65" value="Row 3" style="shape=partialRectangle;connectable=0;fillColor=none;top=0;left=0;bottom=0;right=0;align=left;spacingLeft=6;overflow=hidden;whiteSpace=wrap;html=1;" parent="Wda21bL40QOKUWqbM3mz-63" vertex="1">
          <mxGeometry x="30" width="150" height="30" as="geometry">
            <mxRectangle width="150" height="30" as="alternateBounds" />
          </mxGeometry>
        </mxCell>
        <mxCell id="Wda21bL40QOKUWqbM3mz-27" value="&lt;i&gt;PARQUEADERO&lt;/i&gt;" style="shape=table;startSize=30;container=1;collapsible=1;childLayout=tableLayout;fixedRows=1;rowLines=0;fontStyle=1;align=center;resizeLast=1;html=1;strokeWidth=1;perimeterSpacing=0;" parent="1" vertex="1">
          <mxGeometry x="-130" y="110" width="180" height="150" as="geometry">
            <mxRectangle x="-130" y="110" width="130" height="30" as="alternateBounds" />
          </mxGeometry>
        </mxCell>
        <mxCell id="Wda21bL40QOKUWqbM3mz-28" value="" style="shape=tableRow;horizontal=0;startSize=0;swimlaneHead=0;swimlaneBody=0;fillColor=none;collapsible=0;dropTarget=0;points=[[0,0.5],[1,0.5]];portConstraint=eastwest;top=0;left=0;right=0;bottom=1;" parent="Wda21bL40QOKUWqbM3mz-27" vertex="1">
          <mxGeometry y="30" width="180" height="30" as="geometry" />
        </mxCell>
        <mxCell id="Wda21bL40QOKUWqbM3mz-29" value="PK" style="shape=partialRectangle;connectable=0;fillColor=none;top=0;left=0;bottom=0;right=0;fontStyle=1;overflow=hidden;whiteSpace=wrap;html=1;" parent="Wda21bL40QOKUWqbM3mz-28" vertex="1">
          <mxGeometry width="30" height="30" as="geometry">
            <mxRectangle width="30" height="30" as="alternateBounds" />
          </mxGeometry>
        </mxCell>
        <mxCell id="Wda21bL40QOKUWqbM3mz-30" value="&lt;span style=&quot;font-weight: 400; text-align: center;&quot;&gt;id_parquea&lt;/span&gt;" style="shape=partialRectangle;connectable=0;fillColor=none;top=0;left=0;bottom=0;right=0;align=left;spacingLeft=6;fontStyle=5;overflow=hidden;whiteSpace=wrap;html=1;" parent="Wda21bL40QOKUWqbM3mz-28" vertex="1">
          <mxGeometry x="30" width="150" height="30" as="geometry">
            <mxRectangle width="150" height="30" as="alternateBounds" />
          </mxGeometry>
        </mxCell>
        <mxCell id="Wda21bL40QOKUWqbM3mz-31" value="" style="shape=tableRow;horizontal=0;startSize=0;swimlaneHead=0;swimlaneBody=0;fillColor=none;collapsible=0;dropTarget=0;points=[[0,0.5],[1,0.5]];portConstraint=eastwest;top=0;left=0;right=0;bottom=0;" parent="Wda21bL40QOKUWqbM3mz-27" vertex="1">
          <mxGeometry y="60" width="180" height="30" as="geometry" />
        </mxCell>
        <mxCell id="Wda21bL40QOKUWqbM3mz-32" value="" style="shape=partialRectangle;connectable=0;fillColor=none;top=0;left=0;bottom=0;right=0;editable=1;overflow=hidden;whiteSpace=wrap;html=1;" parent="Wda21bL40QOKUWqbM3mz-31" vertex="1">
          <mxGeometry width="30" height="30" as="geometry">
            <mxRectangle width="30" height="30" as="alternateBounds" />
          </mxGeometry>
        </mxCell>
        <mxCell id="Wda21bL40QOKUWqbM3mz-33" value="Row 1" style="shape=partialRectangle;connectable=0;fillColor=none;top=0;left=0;bottom=0;right=0;align=left;spacingLeft=6;overflow=hidden;whiteSpace=wrap;html=1;" parent="Wda21bL40QOKUWqbM3mz-31" vertex="1">
          <mxGeometry x="30" width="150" height="30" as="geometry">
            <mxRectangle width="150" height="30" as="alternateBounds" />
          </mxGeometry>
        </mxCell>
        <mxCell id="Wda21bL40QOKUWqbM3mz-34" value="" style="shape=tableRow;horizontal=0;startSize=0;swimlaneHead=0;swimlaneBody=0;fillColor=none;collapsible=0;dropTarget=0;points=[[0,0.5],[1,0.5]];portConstraint=eastwest;top=0;left=0;right=0;bottom=0;" parent="Wda21bL40QOKUWqbM3mz-27" vertex="1">
          <mxGeometry y="90" width="180" height="30" as="geometry" />
        </mxCell>
        <mxCell id="Wda21bL40QOKUWqbM3mz-35" value="" style="shape=partialRectangle;connectable=0;fillColor=none;top=0;left=0;bottom=0;right=0;editable=1;overflow=hidden;whiteSpace=wrap;html=1;" parent="Wda21bL40QOKUWqbM3mz-34" vertex="1">
          <mxGeometry width="30" height="30" as="geometry">
            <mxRectangle width="30" height="30" as="alternateBounds" />
          </mxGeometry>
        </mxCell>
        <mxCell id="Wda21bL40QOKUWqbM3mz-36" value="Row 2" style="shape=partialRectangle;connectable=0;fillColor=none;top=0;left=0;bottom=0;right=0;align=left;spacingLeft=6;overflow=hidden;whiteSpace=wrap;html=1;" parent="Wda21bL40QOKUWqbM3mz-34" vertex="1">
          <mxGeometry x="30" width="150" height="30" as="geometry">
            <mxRectangle width="150" height="30" as="alternateBounds" />
          </mxGeometry>
        </mxCell>
        <mxCell id="Wda21bL40QOKUWqbM3mz-37" value="" style="shape=tableRow;horizontal=0;startSize=0;swimlaneHead=0;swimlaneBody=0;fillColor=none;collapsible=0;dropTarget=0;points=[[0,0.5],[1,0.5]];portConstraint=eastwest;top=0;left=0;right=0;bottom=0;" parent="Wda21bL40QOKUWqbM3mz-27" vertex="1">
          <mxGeometry y="120" width="180" height="30" as="geometry" />
        </mxCell>
        <mxCell id="Wda21bL40QOKUWqbM3mz-38" value="" style="shape=partialRectangle;connectable=0;fillColor=none;top=0;left=0;bottom=0;right=0;editable=1;overflow=hidden;whiteSpace=wrap;html=1;" parent="Wda21bL40QOKUWqbM3mz-37" vertex="1">
          <mxGeometry width="30" height="30" as="geometry">
            <mxRectangle width="30" height="30" as="alternateBounds" />
          </mxGeometry>
        </mxCell>
        <mxCell id="Wda21bL40QOKUWqbM3mz-39" value="Row 3" style="shape=partialRectangle;connectable=0;fillColor=none;top=0;left=0;bottom=0;right=0;align=left;spacingLeft=6;overflow=hidden;whiteSpace=wrap;html=1;" parent="Wda21bL40QOKUWqbM3mz-37" vertex="1">
          <mxGeometry x="30" width="150" height="30" as="geometry">
            <mxRectangle width="150" height="30" as="alternateBounds" />
          </mxGeometry>
        </mxCell>
      </root>
    </mxGraphModel>
  </diagram>
</mxfile>
